<?xml version="1.0" encoding="UTF-8"?>
<svg version="1.1" xmlns="http://www.w3.org/2000/svg" width="1000" height="197">
<path d="M0 0 C4.16891494 3.49706501 8.15282973 7.15282973 12 11 C11.68135816 14.40808226 10.33200568 15.98029969 7.875 18.25 C4.67202405 21.31598513 1.73893516 24.5114047 -1.15625 27.8671875 C-3.22850464 30.26432953 -5.33051222 32.63334823 -7.4375 35 C-8.11683594 35.763125 -8.79617188 36.52625 -9.49609375 37.3125 C-10.24052734 38.1478125 -10.24052734 38.1478125 -11 39 C-11.66 38.34 -12.32 37.68 -13 37 C-13.46019531 36.54625 -13.92039062 36.0925 -14.39453125 35.625 C-15.5429313 34.46262915 -16.66245572 33.27144559 -17.76171875 32.0625 C-24.40466929 24.9479404 -31.97144522 20.37872486 -41.79296875 19.76171875 C-53.45022009 19.4643793 -53.45022009 19.4643793 -64 24 C-64.69351563 24.43570313 -65.38703125 24.87140625 -66.1015625 25.3203125 C-75.44761913 31.72603671 -82.36250119 42.5873844 -84.65234375 53.703125 C-87.2386415 70.79012587 -85.37957056 86.11056545 -75.21875 100.52734375 C-69.917709 107.05587989 -62.46468059 112.54488855 -54 114 C-42.252952 114.8520451 -32.42357951 113.98240389 -23.0625 106.25 C-16.68337342 100.09869937 -15.15140529 94.60562117 -13 86 C-25.21 86 -37.42 86 -50 86 C-50 76.43 -50 66.86 -50 57 C-25.58 57 -1.16 57 24 57 C24.33 60.3 24.66 63.6 25 67 C25.86625 65.865625 26.7325 64.73125 27.625 63.5625 C36.84485206 53.0760824 50.26738691 46.74690485 64 45 C84.12316568 43.91888134 101.52399429 45.65824468 117.375 59.375 C127.8217968 69.41477875 133.90556423 80.07691318 134.29272461 94.82373047 C134.42514551 109.39656892 130.69993484 121.4047239 120.81640625 132.4375 C107.05373963 145.81598709 90.48926717 149.48689058 71.86474609 149.35180664 C52.31826528 148.91069053 38.8803398 142.12762025 25.25 128.1875 C21.89353418 123.43250676 19.47495229 118.25608424 17 113 C16.59910156 113.68964844 16.19820312 114.37929687 15.78515625 115.08984375 C6.37239455 130.64971513 -6.84957449 140.07367495 -24 146 C-24.92296875 146.3196875 -25.8459375 146.639375 -26.796875 146.96875 C-46.84532169 152.69687763 -68.53211648 149.61894498 -86.71875 139.97265625 C-103.91006934 129.63739879 -116.96048892 113.13970662 -123 94 C-123.29777344 93.071875 -123.59554687 92.14375 -123.90234375 91.1875 C-130.03261309 68.13542729 -126.81899283 43.33596876 -115.06005859 22.77783203 C-103.61004082 3.57492336 -87.64108872 -7.85949658 -66.30859375 -13.7421875 C-43.87556265 -18.74252726 -18.36415056 -13.67831273 0 0 Z M57.125 83.0625 C52.21378302 89.85153523 52.27564314 95.71632927 53 104 C54.42999783 109.75619379 57.81634629 113.50679878 62.6640625 116.8046875 C68.8740968 119.98239736 76.05141669 120.90000974 82.796875 119.01953125 C88.51670279 116.37258967 92.72476872 112.00945534 96.0625 106.75 C97.93527471 99.25890116 98.3441763 91.59014101 94.33984375 84.75 C91.11522852 80.53825766 86.9659592 76.94588118 82 75 C71.37974244 73.75748218 64.23913746 75.00527804 57.125 83.0625 Z " fill="#312E2F" transform="translate(312,33)"/>
<path d="M0 0 C13.53 0 27.06 0 41 0 C43.51625 5.48625 46.0325 10.9725 48.625 16.625 C49.40568848 18.32479004 50.18637695 20.02458008 50.99072266 21.77587891 C54.22608642 28.83295624 57.43638096 35.90000979 60.5234375 43.0234375 C61.00474121 44.13380371 61.48604492 45.24416992 61.98193359 46.38818359 C63 49 63 49 63 51 C63.66 51 64.32 51 65 51 C65.19101036 49.89737572 65.19101036 49.89737572 65.38587952 48.7724762 C65.96162378 46.17325129 66.72618407 44.05494658 67.82592773 41.64038086 C68.19979111 40.8127977 68.57365448 39.98521454 68.95884705 39.1325531 C69.56509666 37.81203697 69.56509666 37.81203697 70.18359375 36.46484375 C70.59916031 35.5491713 71.01472687 34.63349884 71.44288635 33.69007874 C72.76952851 30.77029614 74.10349979 27.85392699 75.4375 24.9375 C76.33184417 22.97091406 77.22572955 21.0041194 78.11914062 19.03710938 C79.75829479 15.43358227 81.3982809 11.83044918 83.04467773 8.23022461 C83.53979103 7.14698158 83.53979103 7.14698158 84.04490662 6.04185486 C84.99480881 4.01109804 85.9973747 2.0052506 87 0 C109.11 0 131.22 0 154 0 C154 32.34 154 64.68 154 98 C142.45 98 130.9 98 119 98 C118.67 72.59 118.34 47.18 118 21 C107.16609033 41.11366818 107.16609033 41.11366818 96.375 61.25 C91.65068055 70.07649348 86.90865826 78.89300649 82.125 87.6875 C81.61888184 88.62045898 81.11276367 89.55341797 80.59130859 90.51464844 C80.13062988 91.35930664 79.66995117 92.20396484 79.1953125 93.07421875 C78.79328613 93.81244873 78.39125977 94.55067871 77.97705078 95.3112793 C77 97 77 97 76 98 C74.14630389 98.08737645 72.28932459 98.10698153 70.43359375 98.09765625 C69.30888672 98.09443359 68.18417969 98.09121094 67.02539062 98.08789062 C65.84138672 98.07951172 64.65738281 98.07113281 63.4375 98.0625 C62.24962891 98.05798828 61.06175781 98.05347656 59.83789062 98.04882812 C56.89187774 98.03699675 53.94596319 98.02051287 51 98 C50.45811035 96.94594971 50.45811035 96.94594971 49.90527344 95.87060547 C43.32173529 83.07990959 36.69441711 70.32584808 29.76171875 57.7199707 C24.45770214 48.05671544 19.29982243 38.31677375 14.13745117 28.57739258 C13.79570358 27.9327153 13.45395599 27.28803802 13.10185242 26.62382507 C12.42374648 25.3438118 11.74625811 24.06347115 11.06941223 22.78279114 C9.29765312 19.43320521 7.51176236 16.09212589 5.70507812 12.76123047 C5.33308289 12.07262436 4.96108765 11.38401825 4.57781982 10.67454529 C3.86353326 9.35355373 3.14593988 8.03434344 2.42462158 6.71717834 C0 2.22380458 0 2.22380458 0 0 Z " fill="#322F30" transform="translate(430,81)"/>
<path d="M0 0 C12.79050066 9.85015568 16.11153003 20.45000567 18.5625 35.75 C19.078125 34.55375 19.59375 33.3575 20.125 32.125 C23.25288906 25.92409713 28.24359858 21.43348593 34.92578125 19.21484375 C38.66196904 18.55616768 42.33649231 18.46593615 46.125 18.4375 C46.8454248 18.43186035 47.56584961 18.4262207 48.30810547 18.42041016 C53.06354797 18.48462877 57.04561786 19.2602005 61.5625 20.75 C60.94065681 23.98213845 59.81668891 26.12435543 57.9375 28.8125 C55.50640721 32.32537093 53.26461735 35.90209161 51.0625 39.5625 C47.60567831 45.03070245 44.76140986 47.68369671 38.5625 49.75 C32.61999925 50.22540006 28.02906695 48.83250169 22.5625 46.75 C24.54434534 38.01749398 29.37207915 32.94042085 35.5625 26.75 C34.61375 27.41 33.665 28.07 32.6875 28.75 C29.5625 30.75 29.5625 30.75 27.5625 30.75 C27.27375 31.33652344 26.985 31.92304687 26.6875 32.52734375 C26.00878725 33.86827276 25.30689975 35.19829888 24.5625 36.50390625 C21.49928475 42.0440182 20.4333689 47.51641212 19.5625 53.75 C19.10875 53.275625 18.655 52.80125 18.1875 52.3125 C16.62991796 50.65972192 16.62991796 50.65972192 14.5625 49.75 C14.21226684 47.67853549 13.95949963 45.59039192 13.75 43.5 C12.13470683 31.28589857 8.11411152 20.12882337 -1.5 12.0078125 C-7.01966687 8.04548021 -12.99543227 5.79701218 -19.4375 3.75 C-18.74785156 4.15089844 -18.05820312 4.55179688 -17.34765625 4.96484375 C-4.71331865 12.6078381 2.64004785 21.39426608 8.5625 34.75 C9.28125 37.703125 9.28125 37.703125 9.5625 39.75 C-0.64858612 44.08197593 -12.72158626 46.39570756 -23.4375 42.25 C-32.39601591 37.11556357 -37.26965286 29.24659645 -41.9375 20.3125 C-46.01046484 12.54745855 -50.30134813 6.05058341 -56.4375 -0.25 C-56.1075 -1.24 -55.7775 -2.23 -55.4375 -3.25 C-38.37001626 -10.13687941 -15.63353857 -10.2426632 0 0 Z " fill="#43A900" transform="translate(407.4375,26.25)"/>
<path d="M0 0 C4.78896202 3.00702266 7.3329481 6.66008509 9 12 C9.88777902 18.16064834 9.54451432 23.75108797 6.41015625 29.2109375 C3.15573119 33.33982027 -1.03245956 36.34415319 -6 38 C-13.05351227 38.69509572 -19.27006093 38.50388224 -25 34 C-30.44812944 28.19500619 -32.40330397 23.27996148 -32.2734375 15.37109375 C-31.60837659 9.60406556 -28.80867054 5.45397038 -24.5625 1.625 C-16.79992301 -4.41438336 -8.66786541 -4.66731215 0 0 Z " fill="#312E2F" transform="translate(578,23)"/>
<path d="M0 0 C7 0 7 0 9.44702148 2.44677734 C10.19696598 3.5598934 10.92047886 4.69113059 11.62109375 5.8359375 C12.01071793 6.43048737 12.4003421 7.02503723 12.80177307 7.63760376 C14.03713841 9.5360624 15.23654871 11.45463246 16.4375 13.375 C17.27064359 14.66024579 18.1059087 15.94411899 18.94335938 17.2265625 C25 26.59874233 25 26.59874233 25 29 C25.66 29 26.32 29 27 29 C27.25885986 28.29335205 27.51771973 27.5867041 27.78442383 26.85864258 C30.09187428 21.43226431 33.48874651 16.62263725 36.6875 11.6875 C37.03675537 11.12377686 37.38601074 10.56005371 37.74584961 9.97924805 C38.76885868 8.32914895 39.82741406 6.70125537 40.88671875 5.07421875 C41.50764404 4.10057373 42.12856934 3.12692871 42.76831055 2.1237793 C45 0 45 0 52 0 C52 16.83 52 33.66 52 51 C49.69 51 47.38 51 45 51 C44.505 33.675 44.505 33.675 44 16 C39.43635927 22.86525002 39.43635927 22.86525002 34.87524414 29.73217773 C34.30926514 30.58239502 33.74328613 31.4326123 33.16015625 32.30859375 C32.57886963 33.18314209 31.99758301 34.05769043 31.39868164 34.95874023 C29.37740703 37.90862276 29.37740703 37.90862276 25.90234375 38.75 C22 38 22 38 20.11376953 35.93359375 C18.13552833 33.01271464 16.33492087 30.05127785 14.5625 27 C12.396875 23.37 10.23125 19.74 8 16 C7.67 27.55 7.34 39.1 7 51 C4.69 51 2.38 51 0 51 C0 34.17 0 17.34 0 0 Z " fill="#312E2F" transform="translate(604,102)"/>
<path d="M0 0 C26.90909091 0 26.90909091 0 33.8125 5.0625 C37.3047573 9.75210266 38.46517461 14.65391448 37.65625 20.47265625 C36.10183155 26.01489824 33.77769211 28.84875627 29 32 C28.34 32 27.68 32 27 32 C29.85046765 37.24486048 33.09281732 42.03909603 36.609375 46.86328125 C38 49 38 49 38 51 C34.87555256 51.49271637 32.11101373 51.64014723 29 51 C26.32136841 48.78365908 24.70493099 46.09184972 22.9375 43.125 C22.45345703 42.37863281 21.96941406 41.63226563 21.47070312 40.86328125 C18 35.41422825 18 35.41422825 18 33 C14.37 33 10.74 33 7 33 C7 38.94 7 44.88 7 51 C4.69 51 2.38 51 0 51 C0 34.17 0 17.34 0 0 Z M7 7 C7 13.27 7 19.54 7 26 C9.701875 26.0825 12.40375 26.165 15.1875 26.25 C16.45049927 26.30462402 16.45049927 26.30462402 17.73901367 26.36035156 C21.67603679 26.41837972 23.56872297 26.27286024 26.98828125 24.109375 C29.53821711 21.44236165 29.53821711 21.44236165 30.01953125 17.94140625 C29.71417424 13.00771783 29.71417424 13.00771783 27.125 9 C22.78332112 6.956857 19.00726224 6.88094866 14.3125 6.9375 C11.899375 6.958125 9.48625 6.97875 7 7 Z " fill="#312E2F" transform="translate(741,102)"/>
<path d="M0 0 C2.31 0 4.62 0 7 0 C11.40669008 9.33955212 15.30553922 18.88150101 19.21313477 28.4375 C20.32471243 31.15485443 21.44047006 33.87046686 22.55664062 36.5859375 C23.26326689 38.30979499 23.96965608 40.03374969 24.67578125 41.7578125 C25.01007645 42.57122101 25.34437164 43.38462952 25.688797 44.22268677 C28 49.88479172 28 49.88479172 28 51 C25.36 51 22.72 51 20 51 C19.32591692 49.73308493 18.66099503 48.46129251 18 47.1875 C17.62875 46.47980469 17.2575 45.77210938 16.875 45.04296875 C16 43 16 43 16 40 C8.08 40.33 0.16 40.66 -8 41 C-9.98 45.95 -9.98 45.95 -12 51 C-14.64 51 -17.28 51 -20 51 C-19.40290658 47.61566981 -18.55662921 44.60102549 -17.25 41.42504883 C-16.89292969 40.55096878 -16.53585937 39.67688873 -16.16796875 38.77632141 C-15.78253906 37.84595566 -15.39710938 36.9155899 -15 35.95703125 C-14.60425781 34.99222336 -14.20851563 34.02741547 -13.80078125 33.03337097 C-12.53804022 29.95800715 -11.26900957 26.8852817 -10 23.8125 C-9.14543941 21.73258368 -8.29126825 19.65250731 -7.4375 17.57226562 C-5.87726223 13.77616513 -4.31661953 9.98023938 -2.75 6.18676758 C-2.43546875 5.42463455 -2.1209375 4.66250153 -1.796875 3.87727356 C-1.24027895 2.56604777 -0.63704195 1.2740839 0 0 Z M3 11 C1.66108439 14.28942366 0.32982297 17.58189109 -1 20.875 C-1.57234375 22.28072266 -1.57234375 22.28072266 -2.15625 23.71484375 C-2.5171875 24.61074219 -2.878125 25.50664063 -3.25 26.4296875 C-3.58515625 27.25710449 -3.9203125 28.08452148 -4.265625 28.93701172 C-5.11178719 30.94906304 -5.11178719 30.94906304 -5 33 C0.61 33 6.22 33 12 33 C11.29836166 29.49180831 10.7077252 26.97658183 9.37109375 23.79296875 C9.05849609 23.04208984 8.74589844 22.29121094 8.42382812 21.51757812 C7.9355957 20.36418945 7.9355957 20.36418945 7.4375 19.1875 C7.10814453 18.39923828 6.77878906 17.61097656 6.43945312 16.79882812 C5.63041094 14.86416204 4.81576148 12.93184247 4 11 C3.67 11 3.34 11 3 11 Z " fill="#312E2F" transform="translate(695,102)"/>
<path d="M0 0 C13.53 0 27.06 0 41 0 C41 2.31 41 4.62 41 7 C35.39 7 29.78 7 24 7 C24 21.52 24 36.04 24 51 C21.69 51 19.38 51 17 51 C17 36.48 17 21.96 17 7 C11.39 7 5.78 7 0 7 C0 4.69 0 2.38 0 0 Z " fill="#312E2F" transform="translate(796,102)"/>
</svg>
